<svg width="32" height="32" viewBox="0 0 32 32" fill="none" xmlns="http://www.w3.org/2000/svg">
  <circle cx="16" cy="16" r="16" fill="#26A17B"/>
  <path d="M17.922 17.383v-.002c-.11.008-.677.042-1.942.042-1.01 0-1.721-.03-1.971-.042v.003c-3.888-.171-6.79-.848-6.79-1.658 0-.809 2.902-1.486 6.79-1.66v2.644c.254.018.982.061 1.988.061 1.207 0 1.812-.05 1.925-.06v-2.643c3.88.173 6.775.85 6.775 1.658 0 .81-2.895 1.485-6.775 1.657z" fill="white"/>
  <path d="M17.922 15.475v-2.441h4.15v-1.525h-12.144v1.525h4.15v2.441c-4.237.182-7.416.997-7.416 1.96 0 .964 3.179 1.779 7.416 1.961v5.611h3.844v-5.611c4.226-.182 7.398-.997 7.398-1.961 0-.963-3.172-1.778-7.398-1.96z" fill="white"/>
</svg>
